<svg xmlns="http://www.w3.org/2000/svg" style="width:0; height:0; visibility:hidden;">
    <symbol id="icon_archive-icon" viewBox="0 0 20 20">
       <path opacity="0.75" d="M18.776 6.939C19.224 6.939 19.592 7.304 19.592 7.755V18.775C19.592 18.9915 19.5061 19.1992 19.3531 19.3524C19.2001 19.5055 18.9925 19.5917 18.776 19.592H0.816001C0.708805 19.5921 0.602636 19.5711 0.503575 19.5302C0.404514 19.4892 0.314507 19.4291 0.238708 19.3533C0.162909 19.2775 0.102808 19.1875 0.0618469 19.0884C0.0208856 18.9894 -0.000130995 18.8832 6.14307e-07 18.776V4.898C6.14307e-07 4.448 0.363001 4.082 0.816001 4.082H3.266V0.816C3.266 0.367 3.633 0 4.082 0H12.245C12.461 0 12.669 0.086 12.82 0.24L16.902 4.322C17.057 4.473 17.142 4.682 17.142 4.898V6.938L18.776 6.939ZM13.06 4.09H14.362L13.06 2.788V4.09ZM4.897 4.082H6.987C7.272 4.082 7.537 4.231 7.685 4.474L9.184 6.94H15.51V5.723H12.245C12.0288 5.72221 11.8217 5.63598 11.6689 5.48313C11.516 5.33027 11.4298 5.12317 11.429 4.907V1.633H4.898L4.897 4.082ZM17.958 8.574H8.722C8.58176 8.57365 8.44395 8.53734 8.32175 8.46853C8.19954 8.39973 8.09703 8.30073 8.024 8.181L6.531 5.714H1.633V17.97H17.959L17.958 8.574Z"/> 
    </symbol>
    <symbol id="icon_basket-icon" viewBox="0 0 17 19">
       <path opacity="0.75" d="M16.0358 1.98C16.4938 1.98 16.8658 2.335 16.8658 2.77C16.8658 3.21 16.4938 3.563 16.0358 3.563H15.1658L14.3758 18.248C14.3538 18.671 13.9898 19 13.5478 19H3.59779C3.15479 19 2.79079 18.671 2.76779 18.248L1.97979 3.562H1.10979C0.651785 3.562 0.279785 3.21 0.279785 2.771C0.279785 2.335 0.651785 1.979 1.10979 1.979H5.25578V0.792C5.25578 0.356 5.62678 0 6.08478 0H11.0598C11.5178 0 11.8898 0.356 11.8898 0.792V1.979L16.0358 1.98ZM13.5058 3.563H3.63979L4.38378 17.427H12.7638L13.5058 3.563Z" fill="#728096"/> <path opacity="0.75" d="M6.91155 15.2399C6.9914 15.2418 7.07083 15.2279 7.14531 15.199C7.21979 15.1702 7.28786 15.1269 7.34562 15.0718C7.40338 15.0166 7.44971 14.9506 7.48195 14.8775C7.5142 14.8045 7.53173 14.7258 7.53355 14.6459V6.33391C7.53173 6.25406 7.5142 6.17535 7.48195 6.10228C7.44971 6.02921 7.40338 5.9632 7.34562 5.90804C7.28786 5.85288 7.21979 5.80964 7.14531 5.78079C7.07083 5.75194 6.9914 5.73805 6.91155 5.73991C6.8317 5.73805 6.75227 5.75194 6.67779 5.78079C6.60331 5.80964 6.53525 5.85288 6.47748 5.90804C6.41972 5.9632 6.37339 6.02921 6.34115 6.10228C6.3089 6.17535 6.29137 6.25406 6.28955 6.33391V14.6459C6.28955 14.9749 6.56755 15.2399 6.91155 15.2399" fill="#728096"/> <path opacity="0.75" d="M10.2319 15.2399C10.3117 15.2418 10.3911 15.2279 10.4656 15.199C10.5401 15.1702 10.6082 15.1269 10.6659 15.0718C10.7237 15.0166 10.77 14.9506 10.8023 14.8775C10.8345 14.8045 10.852 14.7258 10.8539 14.6459V6.33391C10.852 6.25406 10.8345 6.17535 10.8023 6.10228C10.77 6.02921 10.7237 5.9632 10.6659 5.90804C10.6082 5.85288 10.5401 5.80964 10.4656 5.78079C10.3911 5.75194 10.3117 5.73805 10.2319 5.73991C10.152 5.73805 10.0726 5.75194 9.9981 5.78079C9.92362 5.80964 9.85556 5.85288 9.7978 5.90804C9.74003 5.9632 9.69371 6.02921 9.66146 6.10228C9.62921 6.17535 9.61168 6.25406 9.60986 6.33391V14.6459C9.60986 14.9749 9.88786 15.2399 10.2319 15.2399" fill="#728096"/> 
    </symbol>
    <symbol id="icon_close-icon" viewBox="0 0 12 12">
       <path d="M1.41016 1L11.4102 11" stroke="#979797" stroke-width="1.08" stroke-miterlimit="50" stroke-linecap="round" stroke-linejoin="round"/> <path d="M11.4102 1L1.41016 11" stroke="#979797" stroke-width="1.08" stroke-miterlimit="50" stroke-linecap="round" stroke-linejoin="round"/> 
    </symbol>
    <symbol id="icon_email-icon" viewBox="0 0 20 13">
       <path opacity="0.75" d="M19.858 0.78C19.859 0.788 19.862 0.8 19.862 0.813V12.187C19.862 12.638 19.496 13 19.046 13H1.08602C0.979003 13.0004 0.872961 12.9797 0.773977 12.939C0.674992 12.8983 0.585013 12.8385 0.509201 12.7629C0.433389 12.6874 0.373236 12.5977 0.332191 12.4988C0.291147 12.4 0.270019 12.294 0.27002 12.187V0.813C0.27002 0.8 0.27302 0.787 0.27402 0.78C0.275056 0.749877 0.277727 0.719833 0.28202 0.69C0.28602 0.667 0.29002 0.643 0.29602 0.619C0.310408 0.567447 0.328454 0.516986 0.35002 0.468C0.36102 0.442 0.37402 0.422 0.38702 0.397C0.400978 0.373516 0.41669 0.351119 0.43402 0.33L0.45402 0.298L0.48202 0.273L0.54202 0.213L0.60302 0.163C0.62302 0.147 0.64502 0.135 0.66702 0.119C0.691175 0.10567 0.715511 0.0926692 0.74002 0.08C0.761919 0.0691773 0.784661 0.0601477 0.80802 0.053C0.83502 0.045 0.86102 0.033 0.89002 0.028C0.912862 0.0207108 0.936278 0.0153585 0.96002 0.012C0.99002 0.008 1.02002 0.004 1.05002 0.004C1.06202 0.004 1.07402 0 1.08602 0H19.046C19.058 0 19.07 0.004 19.082 0.004C19.112 0.004 19.142 0.008 19.172 0.012C19.1961 0.0153452 19.2198 0.0206972 19.243 0.028C19.27 0.033 19.296 0.045 19.323 0.053C19.346 0.061 19.37 0.069 19.393 0.081L19.464 0.118C19.487 0.134 19.508 0.146 19.529 0.163L19.589 0.211C19.611 0.231 19.631 0.251 19.649 0.272C19.659 0.28 19.669 0.288 19.677 0.297L19.697 0.329C19.714 0.349 19.73 0.374 19.745 0.399C19.758 0.423 19.77 0.443 19.781 0.467C19.8037 0.515303 19.8221 0.565494 19.836 0.617L19.85 0.691C19.8543 0.720501 19.857 0.750211 19.858 0.78V0.78ZM3.37302 1.625L8.81002 6.053C9.16539 6.34073 9.60877 6.49772 10.066 6.49772C10.5233 6.49772 10.9666 6.34073 11.322 6.053L16.759 1.625H3.37302ZM18.229 11.365V2.527L12.356 7.307C11.7084 7.83182 10.8996 8.1172 10.066 8.115C9.23242 8.11737 8.42355 7.83197 7.77602 7.307L1.90302 2.527V11.365H18.229Z" fill="#728096"/> 
    </symbol>
    <symbol id="icon_fav-icon" viewBox="0 0 26 24">
       <path d="M20.007 23.88L13.411 20.394L6.81496 23.88C6.64279 23.9708 6.44861 24.0114 6.25451 23.9972C6.06041 23.9831 5.87416 23.9148 5.71696 23.8C5.55964 23.6846 5.43756 23.5277 5.36444 23.3469C5.29131 23.166 5.27003 22.9683 5.30296 22.776L6.56296 15.393L1.22596 10.164C1.08667 10.0273 0.988197 9.85453 0.941569 9.66501C0.894941 9.4755 0.902003 9.27675 0.961963 9.09102C1.08496 8.71102 1.41096 8.43502 1.80396 8.37802L9.17796 7.30002L12.476 0.584019C12.5619 0.409347 12.695 0.262236 12.8603 0.159359C13.0255 0.0564817 13.2163 0.00195313 13.411 0.00195312C13.6056 0.00195312 13.7964 0.0564817 13.9617 0.159359C14.1269 0.262236 14.26 0.409347 14.346 0.584019L17.644 7.30002L25.019 8.37702C25.411 8.43402 25.737 8.71002 25.86 9.09002C25.982 9.46902 25.88 9.88502 25.596 10.163L20.26 15.392L21.52 22.775C21.5528 22.9674 21.5314 23.1651 21.458 23.346C21.3847 23.5269 21.2625 23.6838 21.105 23.799C20.9478 23.9138 20.7615 23.9821 20.5674 23.9962C20.3733 24.0104 20.1791 23.9698 20.007 23.879V23.88ZM13.411 18.171C13.578 18.171 13.744 18.211 13.896 18.291L19.108 21.047L18.113 15.211C18.054 14.871 18.167 14.524 18.413 14.283L22.629 10.15L16.802 9.29802C16.6344 9.27341 16.4754 9.20837 16.3386 9.10854C16.2019 9.00871 16.0915 8.87708 16.017 8.72502L13.411 3.41502L10.805 8.72502C10.653 9.03402 10.36 9.24802 10.021 9.29802L4.19296 10.15L8.40996 14.283C8.65596 14.523 8.76796 14.871 8.70996 15.211L7.71396 21.047L12.926 18.292C13.078 18.212 13.245 18.172 13.411 18.172V18.171Z"/> 
    </symbol>
    <symbol id="icon_print-icon" viewBox="0 0 20 18">
       <path opacity="0.75" d="M19.046 4.09406C19.2625 4.09511 19.4697 4.1817 19.6226 4.33493C19.7754 4.48816 19.8615 4.69562 19.862 4.91206V11.8671C19.8615 12.0835 19.7754 12.291 19.6226 12.4442C19.4697 12.5974 19.2625 12.684 19.046 12.6851H15.984V17.1851C15.984 17.5251 15.71 17.7991 15.372 17.7991H4.76002C4.67952 17.7989 4.59983 17.7829 4.52551 17.752C4.45119 17.7211 4.38369 17.6758 4.32686 17.6188C4.27003 17.5618 4.22498 17.4941 4.1943 17.4197C4.16361 17.3453 4.14789 17.2656 4.14802 17.1851V12.6851H1.08602C0.869582 12.684 0.662339 12.5974 0.50948 12.4442C0.356621 12.291 0.270545 12.0835 0.27002 11.8671V4.91206C0.270545 4.69562 0.356621 4.48816 0.50948 4.33493C0.662339 4.1817 0.869582 4.09511 1.08602 4.09406H4.14802V0.924059C4.14802 0.584059 4.42202 0.310059 4.76002 0.310059H15.372C15.71 0.310059 15.984 0.585059 15.984 0.924059V4.09406H19.046ZM5.37202 4.08406H14.76V1.53706H5.37202V4.08406ZM5.37202 16.5711H14.76V9.17406H5.37202V16.5711ZM18.229 5.73106H1.90302V11.0491H4.14802V8.56006C4.14802 8.22106 4.42202 7.94706 4.76002 7.94706H15.372C15.71 7.94706 15.984 8.22106 15.984 8.56006V11.0491H18.229V5.73106Z" fill="#728096"/> <path opacity="0.75" d="M12.3098 12.237H7.41184C7.24913 12.237 7.09308 12.1724 6.97803 12.0573C6.86298 11.9423 6.79834 11.7862 6.79834 11.6235C6.79834 11.4608 6.86298 11.3048 6.97803 11.1897C7.09308 11.0746 7.24913 11.01 7.41184 11.01H12.3098C12.4726 11.01 12.6286 11.0746 12.7436 11.1897C12.8587 11.3048 12.9233 11.4608 12.9233 11.6235C12.9233 11.7862 12.8587 11.9423 12.7436 12.0573C12.6286 12.1724 12.4726 12.237 12.3098 12.237" fill="#728096"/> <path opacity="0.75" d="M11.0858 14.697H7.41184C7.24913 14.697 7.09308 14.6323 6.97803 14.5173C6.86298 14.4022 6.79834 14.2462 6.79834 14.0835C6.79834 13.9208 6.86298 13.7647 6.97803 13.6497C7.09308 13.5346 7.24913 13.47 7.41184 13.47H11.0858C11.2486 13.47 11.4046 13.5346 11.5196 13.6497C11.6347 13.7647 11.6993 13.9208 11.6993 14.0835C11.6993 14.2462 11.6347 14.4022 11.5196 14.5173C11.4046 14.6323 11.2486 14.697 11.0858 14.697Z" fill="#728096"/> 
    </symbol>
    <symbol id="icon_share-icon" viewBox="0 0 20 16">
       <path opacity="0.75" d="M0.822037 15.5441C0.660204 15.4891 0.519795 15.3845 0.420718 15.2452C0.32164 15.1059 0.268922 14.939 0.270037 14.7681C0.270037 9.11507 4.84804 4.51207 10.474 4.51207V0.820074C10.4729 0.662041 10.5177 0.507075 10.603 0.374046C10.6883 0.241016 10.8105 0.135661 10.9546 0.0708079C11.0987 0.00595492 11.2585 -0.0155981 11.4147 0.00877301C11.5708 0.0331441 11.7165 0.102388 11.834 0.208074L19.59 7.18307C19.676 7.25999 19.7447 7.35416 19.7918 7.45944C19.8388 7.56472 19.8632 7.67875 19.8632 7.79407C19.8632 7.9094 19.8388 8.02342 19.7918 8.12871C19.7447 8.23399 19.676 8.32816 19.59 8.40507L11.834 15.3801C11.7173 15.4862 11.5722 15.5559 11.4164 15.5808C11.2606 15.6057 11.101 15.5846 10.957 15.5201C10.8125 15.4548 10.69 15.349 10.6042 15.2156C10.5185 15.0821 10.4733 14.9267 10.474 14.7681V11.0881C6.60804 11.2321 3.81604 12.5731 1.73104 15.2731C1.62694 15.408 1.48301 15.5066 1.31966 15.5551C1.15632 15.6036 0.981854 15.5994 0.821037 15.5431L0.822037 15.5441ZM11.186 9.42807H11.294C11.5103 9.42992 11.7171 9.51713 11.8693 9.67071C12.0216 9.82429 12.107 10.0318 12.107 10.2481V12.9251L17.821 7.78907L12.107 2.65807V5.33007C12.107 5.78507 11.741 6.15007 11.29 6.15007H10.474C6.57704 6.15007 3.27904 8.77707 2.24204 12.3591C4.55204 10.3921 7.50304 9.42907 11.186 9.42907V9.42807Z" fill="#728096"/> 
    </symbol>
    <symbol id="icon_url-icon" viewBox="0 0 20 10">
       <path d="M8.32508 8.333C8.54614 8.333 8.75814 8.42081 8.91445 8.57713C9.07076 8.73344 9.15858 8.94544 9.15858 9.1665C9.15858 9.38756 9.07076 9.59956 8.91445 9.75587C8.75814 9.91219 8.54614 10 8.32508 10H5.82708C5.17065 9.99987 4.52067 9.87043 3.91427 9.61907C3.30787 9.36772 2.75693 8.99936 2.2929 8.53506C1.82887 8.07075 1.46085 7.51959 1.20986 6.91303C0.958866 6.30648 0.829816 5.65643 0.830079 5C0.830079 2.239 3.06708 0 5.82708 0H8.32508C8.54614 3.29402e-09 8.75814 0.0878149 8.91445 0.244126C9.07076 0.400438 9.15858 0.612442 9.15858 0.8335C9.15858 1.05456 9.07076 1.26656 8.91445 1.42287C8.75814 1.57919 8.54614 1.667 8.32508 1.667H5.82708C5.38951 1.66713 4.95626 1.75345 4.55205 1.92102C4.14785 2.08859 3.7806 2.33413 3.47129 2.64363C3.16198 2.95312 2.91666 3.32052 2.74933 3.72482C2.582 4.12913 2.49595 4.56244 2.49608 5C2.49581 5.88353 2.84647 6.73099 3.47094 7.35602C4.09541 7.98105 4.94255 8.33247 5.82608 8.333H8.32508ZM6.66508 5.823C6.55608 5.82326 6.4481 5.80205 6.3473 5.76059C6.2465 5.71912 6.15485 5.6582 6.07759 5.58131C6.00033 5.50443 5.93898 5.41308 5.89702 5.31248C5.85507 5.21188 5.83334 5.104 5.83308 4.995C5.83334 4.88592 5.8551 4.77796 5.89712 4.67729C5.93914 4.57663 6.00058 4.48523 6.07795 4.40833C6.15531 4.33143 6.24708 4.27054 6.34799 4.22913C6.44891 4.18772 6.557 4.16661 6.66608 4.167H13.3281C13.7881 4.167 14.1611 4.537 14.1611 4.995C14.1608 5.10408 14.1391 5.21204 14.097 5.31271C14.055 5.41337 13.9936 5.50477 13.9162 5.58167C13.8388 5.65857 13.7471 5.71946 13.6462 5.76087C13.5452 5.80228 13.4372 5.82339 13.3281 5.823H6.66508ZM11.6681 1.667C11.447 1.667 11.235 1.57919 11.0787 1.42287C10.9224 1.26656 10.8346 1.05456 10.8346 0.8335C10.8346 0.612442 10.9224 0.400438 11.0787 0.244126C11.235 0.0878149 11.447 4.65845e-09 11.6681 0H14.1671C14.8234 0.000262591 15.4733 0.1298 16.0796 0.381215C16.6859 0.632631 17.2367 1.001 17.7006 1.46529C18.1645 1.92959 18.5325 2.48071 18.7834 3.0872C19.0343 3.69368 19.1633 4.34365 19.1631 5C19.1631 7.761 16.9261 10 14.1671 10H11.6681C11.447 10 11.235 9.91219 11.0787 9.75587C10.9224 9.59956 10.8346 9.38756 10.8346 9.1665C10.8346 8.94544 10.9224 8.73344 11.0787 8.57713C11.235 8.42081 11.447 8.333 11.6681 8.333H14.1671C15.0506 8.33247 15.8978 7.98105 16.5222 7.35602C17.1467 6.73099 17.4973 5.88353 17.4971 5C17.4973 4.11647 17.1467 3.26901 16.5222 2.64398C15.8978 2.01895 15.0506 1.66753 14.1671 1.667H11.6681Z" fill="#051033"/> 
    </symbol></svg>