<svg xmlns="http://www.w3.org/2000/svg" width="4" height="24" viewBox="0 0 4 24"><defs><clipPath id="2glga"><path fill="#fff" d="M-6 7h16v17H-6z"/></clipPath></defs><g><g opacity=".5" transform="rotate(-180 -39 -299)"><g opacity=".5"><path fill="none" stroke="#979797" stroke-miterlimit="50" stroke-width="1.6" d="M-6 7v0h16v17H-6v0z" clip-path="url(&quot;#2glga&quot;)"/></g><g opacity=".5"><path fill="#817f7f" d="M2 10.4c.884 0 1.6-.761 1.6-1.7S2.884 7 2 7C1.116 7 .4 7.761.4 8.7s.716 1.7 1.6 1.7z"/></g><g opacity=".5"><path fill="#817f7f" d="M2 3.4c.884 0 1.6-.761 1.6-1.7S2.884 0 2 0C1.116 0 .4.761.4 1.7S1.116 3.4 2 3.4z"/></g><g opacity=".5"><path fill="#817f7f" d="M2 17.2c.884 0 1.6-.761 1.6-1.7s-.716-1.7-1.6-1.7c-.884 0-1.6.761-1.6 1.7s.716 1.7 1.6 1.7z"/></g><g opacity=".5"><path fill="#817f7f" d="M2 24c.884 0 1.6-.761 1.6-1.7s-.716-1.7-1.6-1.7c-.884 0-1.6.761-1.6 1.7S1.116 24 2 24z"/></g></g></g></svg>